<svg width="20" height="21" viewBox="0 0 20 21" fill="none" xmlns="http://www.w3.org/2000/svg">
<path fill-rule="evenodd" clip-rule="evenodd" d="M10 6.5C11.6569 6.5 13 5.15685 13 3.5C13 1.84315 11.6569 0.5 10 0.5C8.34315 0.5 7 1.84315 7 3.5C7 5.15685 8.34315 6.5 10 6.5ZM10 2C10.8284 2 11.5 2.67157 11.5 3.5C11.5 4.32843 10.8284 5 10 5C9.17157 5 8.5 4.32843 8.5 3.5C8.5 2.67157 9.17157 2 10 2ZM19.6431 11.3862C19.5407 11.5574 19.3744 11.6807 19.1808 11.7289C18.9873 11.7771 18.7826 11.7462 18.6119 11.6431C18.5791 11.6234 15.3203 9.71281 10.7481 9.51781V12.9688L16.5606 19.5059C16.7385 19.7069 16.7956 19.9875 16.7105 20.242C16.6254 20.4965 16.411 20.6863 16.148 20.7398C15.885 20.7933 15.6135 20.7025 15.4356 20.5016L10 14.375L4.5625 20.4978C4.38465 20.6988 4.1131 20.7896 3.85013 20.736C3.58717 20.6825 3.37274 20.4927 3.28763 20.2382C3.20252 19.9837 3.25965 19.7031 3.4375 19.5022L9.25 12.9688V9.51688C4.65625 9.71187 1.42 11.6225 1.38625 11.6431C1.15633 11.7844 0.868256 11.7912 0.631883 11.6611C0.39551 11.5309 0.247282 11.2838 0.243724 11.014C0.240167 10.7442 0.381829 10.4932 0.614687 10.3569C0.775 10.2603 4.60469 8 10 8C15.3953 8 19.225 10.2603 19.3862 10.3569C19.5569 10.4593 19.6798 10.6253 19.728 10.8183C19.7761 11.0114 19.7456 11.2157 19.6431 11.3862Z" fill="white"/>
</svg>
