<svg width="16" height="15" viewBox="0 0 16 15" fill="none" xmlns="http://www.w3.org/2000/svg">
<path fill-rule="evenodd" clip-rule="evenodd" d="M10.0672 7.94219L6.94219 11.0672C6.69797 11.3114 6.30203 11.3114 6.05781 11.0672C5.8136 10.823 5.8136 10.427 6.05781 10.1828L8.11641 8.125H0.875C0.529822 8.125 0.25 7.84518 0.25 7.5C0.25 7.15482 0.529822 6.875 0.875 6.875H8.11641L6.05781 4.81719C5.8136 4.57297 5.8136 4.17703 6.05781 3.93281C6.30203 3.6886 6.69797 3.6886 6.94219 3.93281L10.0672 7.05781C10.1845 7.17504 10.2505 7.33412 10.2505 7.5C10.2505 7.66588 10.1845 7.82496 10.0672 7.94219ZM14 0H9.625C9.27982 0 9 0.279822 9 0.625C9 0.970178 9.27982 1.25 9.625 1.25H14V13.75H9.625C9.27982 13.75 9 14.0298 9 14.375C9 14.7202 9.27982 15 9.625 15H14C14.6904 15 15.25 14.4404 15.25 13.75V1.25C15.25 0.559644 14.6904 0 14 0Z" fill="white"/>
</svg>
