<svg width="36" height="43" viewBox="0 0 36 43" fill="none" xmlns="http://www.w3.org/2000/svg">
<path d="M27.6404 17.8714L11.3477 26.6112C9.2364 27.7448 6.7381 26.1182 6.7381 23.6066V14.8668V6.12696C6.7381 3.61542 9.2364 1.98881 11.3477 3.12238L27.6404 11.8622C29.9624 13.1096 29.9624 16.624 27.6404 17.8714Z" fill="white"/>
<path d="M12.0254 30.6337L20.9608 25.8382C22.1218 25.2145 23.4892 26.1079 23.4892 27.4859V32.2814V37.0769C23.4892 38.4549 22.1175 39.3483 20.9608 38.7246L12.0254 33.9291C10.7526 33.2464 10.7526 31.3164 12.0254 30.6337Z" fill="white"/>
<path d="M25.3314 23.1871L29.7346 20.8273C30.3065 20.5196 30.9816 20.9621 30.9816 21.6406V24.0004V26.3602C30.9816 27.0387 30.3065 27.477 29.7346 27.1735L25.3314 24.8137C24.7036 24.4766 24.7036 23.5284 25.3314 23.1913V23.1871Z" fill="white"/>
<path d="M11.3477 21.9889L27.6404 13.2491C27.9801 13.0679 28.2682 12.8277 28.509 12.5622C29.9065 14.1088 29.6227 16.8226 27.6404 17.8845L11.3477 26.6243C9.2364 27.7579 6.7381 26.1313 6.7381 23.6198V18.9844C6.7381 21.4959 9.2364 23.1225 11.3477 21.9889Z" fill="white"/>
<path d="M20.9608 38.7302L12.0254 33.9346C10.787 33.2731 10.7569 31.44 11.9179 30.7067C11.9523 30.7278 11.9867 30.7531 12.0254 30.7741L20.9608 35.5697C22.1218 36.1934 23.4892 35.3 23.4892 33.922V37.0825C23.4892 38.4605 22.1175 39.3539 20.9608 38.7302Z" fill="white"/>
</svg>
