<svg width="24" height="24" viewBox="0 0 24 24" fill="none" xmlns="http://www.w3.org/2000/svg">
<path d="M12 9.42857C13.8935 9.42857 15.4286 7.89355 15.4286 6C15.4286 4.10645 13.8935 2.57143 12 2.57143C10.1064 2.57143 8.57141 4.10645 8.57141 6C8.57141 7.89355 10.1064 9.42857 12 9.42857Z" stroke="white" stroke-width="2.05714" stroke-miterlimit="10" stroke-linecap="square"/>
<path d="M7.71429 9.42857L16.2857 9.42857" stroke="white" stroke-width="2.05714" stroke-miterlimit="10" stroke-linecap="square"/>
<path d="M6.67627 18C7.81998 16.8848 8.72863 15.5518 9.34857 14.0796C9.9685 12.6074 10.2872 11.026 10.2857 9.42857" stroke="white" stroke-width="2.05714" stroke-miterlimit="10"/>
<path d="M13.7143 9.42857C13.7128 11.026 14.0315 12.6074 14.6514 14.0796C15.2714 15.5518 16.18 16.8848 17.3237 18" stroke="white" stroke-width="2.05714" stroke-miterlimit="10"/>
<path d="M19.7143 18L4.28571 18L4.28571 21.4286L19.7143 21.4286V18Z" stroke="white" stroke-width="2.05714" stroke-miterlimit="10" stroke-linecap="square"/>
</svg>
