<svg width="24" height="25" viewBox="0 0 24 25" fill="none" xmlns="http://www.w3.org/2000/svg">
<path d="M12 9.92857C13.8935 9.92857 15.4286 8.39355 15.4286 6.5C15.4286 4.60645 13.8935 3.07143 12 3.07143C10.1064 3.07143 8.57141 4.60645 8.57141 6.5C8.57141 8.39355 10.1064 9.92857 12 9.92857Z" stroke="white" stroke-width="2.05714" stroke-miterlimit="10" stroke-linecap="square"/>
<path d="M7.71429 9.92857L16.2857 9.92857" stroke="white" stroke-width="2.05714" stroke-miterlimit="10" stroke-linecap="square"/>
<path d="M6.67627 18.5C7.81998 17.3848 8.72863 16.0518 9.34857 14.5796C9.9685 13.1074 10.2872 11.526 10.2857 9.92857" stroke="white" stroke-width="2.05714" stroke-miterlimit="10"/>
<path d="M13.7143 9.92857C13.7128 11.526 14.0315 13.1074 14.6514 14.5796C15.2714 16.0518 16.18 17.3848 17.3237 18.5" stroke="white" stroke-width="2.05714" stroke-miterlimit="10"/>
<path d="M19.7143 18.5L4.28571 18.5L4.28571 21.9286L19.7143 21.9286V18.5Z" stroke="white" stroke-width="2.05714" stroke-miterlimit="10" stroke-linecap="square"/>
</svg>
