<svg width="1441" height="901" viewBox="0 0 1441 901" fill="none" xmlns="http://www.w3.org/2000/svg">
<g clip-path="url(#clip0_480_3)">
<path d="M1546.93 3.0621H-103.798V898.107H1546.93V3.0621Z" fill="#0F2770"/>
<path d="M133.851 539.271C307.937 468.585 445.456 654.631 650.931 521.968C779.881 438.71 912.878 612.128 1039.55 521.968C1160.61 435.794 947.628 351.934 1247.59 189.229C1364.46 125.834 1401.36 2.39667 1401.36 2.39667H-104.027L-104.027 649.789C-104.027 649.789 -22.1934 587.961 133.851 539.271Z" fill="#40E59D"/>
<path d="M537.012 899.37H1547.93V540.418C1547.93 540.418 1450.92 436.008 1384.46 512.307C1318.02 588.607 1345.6 645.48 1293.85 699.04C1202.06 794.039 1082.48 768.172 832.723 699.04C658.946 650.941 537.012 899.37 537.012 899.37Z" fill="#40E59D"/>
</g>
<defs>
<clipPath id="clip0_480_3">
<rect width="1440" height="900" fill="white" transform="translate(0.520996 0.474609)"/>
</clipPath>
</defs>
</svg>
