<svg width="25" height="25" viewBox="0 0 25 25" fill="none" xmlns="http://www.w3.org/2000/svg">
<path d="M18.521 11.6175V9.04605C18.521 7.45475 17.8888 5.92863 16.7636 4.80341C15.6384 3.67819 14.1123 3.04605 12.521 3.04605C10.9297 3.04605 9.40356 3.67819 8.27834 4.80341C7.15312 5.92863 6.52098 7.45475 6.52098 9.04605V11.6175C6.52098 14.4461 3.94955 15.1318 3.94955 16.7603C3.94955 18.2175 7.29241 19.3318 12.521 19.3318C17.7496 19.3318 21.0924 18.2175 21.0924 16.7603C21.0924 15.1318 18.521 14.4461 18.521 11.6175Z" stroke="#9095A0" stroke-width="2.05714" stroke-miterlimit="10" stroke-linecap="square"/>
<path d="M12.521 21.046C11.6544 21.046 10.8401 21.0169 10.0739 20.9603C10.2372 21.4815 10.5627 21.9368 11.0028 22.2601C11.443 22.5834 11.9749 22.7577 12.521 22.7577C13.0671 22.7577 13.599 22.5834 14.0392 22.2601C14.4793 21.9368 14.8048 21.4815 14.9681 20.9603C14.2019 21.0169 13.3876 21.046 12.521 21.046Z" fill="#9095A0"/>
</svg>
