<svg width="24" height="24" viewBox="0 0 24 24" fill="none" xmlns="http://www.w3.org/2000/svg">
<path d="M22.2857 6C22.2857 3.63686 20.3632 1.71429 18 1.71429C16.4923 1.71429 15.144 2.49257 14.3734 3.74314C13.614 3.54514 12.8212 3.42857 12 3.42857C11.1789 3.42857 10.386 3.54514 9.62658 3.74314C8.85601 2.49257 7.50772 1.71429 6.00001 1.71429C3.63687 1.71429 1.71429 3.63686 1.71429 6C1.71429 7.28057 2.30315 8.47543 3.28029 9.28114C2.82601 10.3851 2.57144 11.5911 2.57144 12.8571C2.57144 18.0557 6.80144 22.2857 12 22.2857C17.1986 22.2857 21.4286 18.0557 21.4286 12.8571C21.4286 11.5911 21.174 10.3851 20.7197 9.28114C21.6969 8.47543 22.2857 7.28057 22.2857 6ZM4.11344 7.70486C3.68744 7.24029 3.42858 6.64114 3.42858 6C3.42858 4.58229 4.58229 3.42857 6.00001 3.42857C6.77744 3.42857 7.48372 3.77571 7.96115 4.35C6.39172 5.09829 5.05972 6.26143 4.11344 7.70486ZM8.57144 10.2857C8.57144 9.81257 8.95544 9.42857 9.42858 9.42857C9.90172 9.42857 10.2857 9.81257 10.2857 10.2857C10.2857 10.7589 9.90172 11.1429 9.42858 11.1429C8.95544 11.1429 8.57144 10.7589 8.57144 10.2857ZM14.5714 18H9.42858V16.2857H11.1429V15.6309L10.3757 14.0974C10.2429 13.8317 10.2574 13.5163 10.4134 13.2634C10.5703 13.0114 10.8454 12.8571 11.1429 12.8571L12.8572 12.8571C13.1546 12.8571 13.4297 13.0114 13.5866 13.2634C13.7426 13.5163 13.7572 13.8317 13.6243 14.0974L12.8572 15.6309V16.2857H14.5714V18ZM14.5714 11.1429C14.0983 11.1429 13.7143 10.7589 13.7143 10.2857C13.7143 9.81257 14.0983 9.42857 14.5714 9.42857C15.0446 9.42857 15.4286 9.81257 15.4286 10.2857C15.4286 10.7589 15.0446 11.1429 14.5714 11.1429ZM19.8866 7.70486C18.9403 6.26143 17.6074 5.09829 16.038 4.35C16.5163 3.77571 17.2226 3.42857 18 3.42857C19.4177 3.42857 20.5714 4.58229 20.5714 6C20.5714 6.64114 20.3126 7.24029 19.8866 7.70486Z" fill="white"/>
</svg>
