<svg width="24" height="24" viewBox="0 0 24 24" fill="none" xmlns="http://www.w3.org/2000/svg">
<path d="M19 5L17 5V3L7 3L7 5L5 5C3.9 5 3 5.9 3 7L3 8C3 10.55 4.92 12.63 7.39 12.94C7.70625 13.6894 8.2002 14.3505 8.82916 14.8662C9.45813 15.3819 10.2032 15.7367 11 15.9V19H7L7 21L17 21V19L13 19V15.9C13.7968 15.7367 14.5419 15.3819 15.1708 14.8662C15.7998 14.3505 16.2937 13.6894 16.61 12.94C19.08 12.63 21 10.55 21 8V7C21 5.9 20.1 5 19 5ZM5 8L5 7L7 7L7 10.82C5.84 10.4 5 9.3 5 8ZM12 14C10.35 14 9 12.65 9 11L9 5L15 5L15 11C15 12.65 13.65 14 12 14ZM19 8C19 9.3 18.16 10.4 17 10.82L17 7L19 7V8Z" fill="white"/>
</svg>
