<svg width="21" height="21" viewBox="0 0 21 21" fill="none" xmlns="http://www.w3.org/2000/svg">
<path d="M10.5 1.96875C8.81268 1.96875 7.16325 2.4691 5.7603 3.40652C4.35734 4.34395 3.26387 5.67635 2.61816 7.23523C1.97245 8.79411 1.8035 10.5095 2.13268 12.1644C2.46186 13.8193 3.27438 15.3394 4.4675 16.5325C5.66062 17.7256 7.18074 18.5381 8.83564 18.8673C10.4905 19.1965 12.2059 19.0276 13.7648 18.3818C15.3237 17.7361 16.6561 16.6427 17.5935 15.2397C18.5309 13.8368 19.0313 12.1873 19.0313 10.5C19.0289 8.2381 18.1293 6.06954 16.5299 4.47013C14.9305 2.87073 12.7619 1.97114 10.5 1.96875ZM17.69 9.85852C17.4811 9.84867 17.272 9.84375 17.0625 9.84375C15.8452 9.84409 14.6332 10.0052 13.4581 10.3228C13.1716 9.47262 12.802 8.65273 12.3547 7.875C13.5212 7.1716 14.5772 6.29945 15.4883 5.28691C16.7526 6.49315 17.5351 8.11798 17.69 9.85852ZM14.4605 4.46742C13.6408 5.36811 12.6933 6.14364 11.6484 6.76922C10.7733 5.53745 9.70294 4.45683 8.47957 3.57C9.48317 3.27702 10.5384 3.20554 11.5724 3.36049C12.6063 3.51544 13.5942 3.89312 14.4679 4.46742H14.4605ZM7.02598 4.17375C8.36686 5.01818 9.53586 6.10868 10.4713 7.38773C8.83414 8.1423 7.05268 8.53245 5.25 8.53125C4.69364 8.53096 4.1379 8.49397 3.58641 8.42051C4.13516 6.61049 5.36945 5.08655 7.02598 4.17375ZM3.28125 10.5C3.28122 10.2358 3.29573 9.97181 3.32473 9.70922C3.96258 9.79877 4.6059 9.84373 5.25 9.84375C7.30861 9.84569 9.34145 9.38598 11.1989 8.49844C11.6081 9.20513 11.9464 9.9506 12.2087 10.7239C11.5116 10.9858 10.837 11.3041 10.1916 11.6755C8.39104 12.7157 6.8472 14.1471 5.67411 15.864C4.92078 15.1882 4.31834 14.3613 3.90604 13.437C3.49375 12.5128 3.28086 11.512 3.28125 10.5ZM6.72657 16.6523C7.79163 15.0771 9.20089 13.7646 10.8478 12.8141C11.3984 12.4963 11.973 12.2221 12.5664 11.9938C12.7694 12.8949 12.872 13.8157 12.8723 14.7394C12.8728 15.6374 12.7768 16.5328 12.5861 17.4103C11.6112 17.7048 10.5851 17.7895 9.57513 17.6589C8.5652 17.5282 7.59438 17.1852 6.72657 16.6523ZM14.0323 16.7943C14.1335 16.1154 14.1845 15.4299 14.1848 14.7435C14.1847 13.681 14.0622 12.6221 13.8198 11.5877C14.8771 11.3024 15.9674 11.1573 17.0625 11.1563C17.2703 11.1563 17.4784 11.1614 17.6868 11.1718C17.5769 12.3343 17.1871 13.4529 16.5507 14.4319C15.9142 15.4109 15.0501 16.2212 14.0323 16.7934V16.7943Z" fill="white"/>
</svg>
