<svg width="24" height="25" viewBox="0 0 24 25" fill="none" xmlns="http://www.w3.org/2000/svg">
<path d="M19 5.5L17 5.5V3.5L7 3.5L7 5.5L5 5.5C3.9 5.5 3 6.4 3 7.5L3 8.5C3 11.05 4.92 13.13 7.39 13.44C7.70625 14.1894 8.2002 14.8505 8.82916 15.3662C9.45813 15.8819 10.2032 16.2367 11 16.4V19.5H7L7 21.5L17 21.5V19.5L13 19.5V16.4C13.7968 16.2367 14.5419 15.8819 15.1708 15.3662C15.7998 14.8505 16.2937 14.1894 16.61 13.44C19.08 13.13 21 11.05 21 8.5V7.5C21 6.4 20.1 5.5 19 5.5ZM5 8.5L5 7.5L7 7.5L7 11.32C5.84 10.9 5 9.8 5 8.5ZM12 14.5C10.35 14.5 9 13.15 9 11.5L9 5.5L15 5.5L15 11.5C15 13.15 13.65 14.5 12 14.5ZM19 8.5C19 9.8 18.16 10.9 17 11.32L17 7.5L19 7.5V8.5Z" fill="white"/>
</svg>
