<svg width="33" height="33" viewBox="0 0 33 33" fill="none" xmlns="http://www.w3.org/2000/svg">
<g clip-path="url(#clip0_257_216)">
<path d="M15.1563 20.24C16.4965 19.3477 17.514 18.0479 18.0584 16.5326C18.6027 15.0173 18.645 13.367 18.1789 11.8259C17.7128 10.2847 16.7631 8.93447 15.4703 7.97479C14.1775 7.01511 12.6101 6.49696 11 6.49696C9.38991 6.49696 7.82255 7.01511 6.52972 7.97479C5.23688 8.93447 4.2872 10.2847 3.82111 11.8259C3.35503 13.367 3.39728 15.0173 3.94162 16.5326C4.48597 18.0479 5.5035 19.3477 6.84375 20.24C4.41937 21.1336 2.34888 22.787 0.941251 24.9538C0.867271 25.0637 0.815884 25.1873 0.790078 25.3173C0.764271 25.4473 0.76456 25.5811 0.790928 25.7109C0.817295 25.8408 0.869215 25.9642 0.943669 26.0738C1.01812 26.1834 1.11363 26.2772 1.22463 26.3496C1.33563 26.422 1.45992 26.4716 1.59026 26.4955C1.72061 26.5195 1.85441 26.5173 1.9839 26.4891C2.11338 26.4608 2.23597 26.4072 2.34452 26.3311C2.45308 26.2551 2.54545 26.1583 2.61625 26.0463C3.52424 24.6497 4.7667 23.5022 6.2308 22.7077C7.6949 21.9133 9.33426 21.4972 11 21.4972C12.6657 21.4972 14.3051 21.9133 15.7692 22.7077C17.2333 23.5022 18.4758 24.6497 19.3838 26.0463C19.5304 26.2642 19.757 26.4158 20.0145 26.468C20.272 26.5203 20.5397 26.4691 20.7597 26.3256C20.9798 26.1821 21.1345 25.9577 21.1905 25.701C21.2464 25.4443 21.1991 25.1759 21.0588 24.9538C19.6511 22.787 17.5806 21.1336 15.1563 20.24ZM5.5 14C5.5 12.9122 5.82257 11.8488 6.42692 10.9444C7.03127 10.0399 7.89025 9.33495 8.89524 8.91867C9.90024 8.50239 11.0061 8.39347 12.073 8.60569C13.1399 8.81791 14.1199 9.34173 14.8891 10.1109C15.6583 10.8801 16.1821 11.8601 16.3943 12.927C16.6065 13.9939 16.4976 15.0998 16.0813 16.1048C15.6651 17.1098 14.9601 17.9687 14.0556 18.5731C13.1512 19.1774 12.0878 19.5 11 19.5C9.54182 19.4984 8.14383 18.9184 7.11274 17.8873C6.08165 16.8562 5.50166 15.4582 5.5 14ZM31.7675 26.3375C31.5454 26.4824 31.2748 26.533 31.0153 26.4784C30.7558 26.4238 30.5286 26.2684 30.3838 26.0463C29.4769 24.6489 28.2346 23.5008 26.7702 22.7067C25.3058 21.9126 23.6659 21.4978 22 21.5C21.7348 21.5 21.4804 21.3947 21.2929 21.2071C21.1054 21.0196 21 20.7652 21 20.5C21 20.2348 21.1054 19.9804 21.2929 19.7929C21.4804 19.6054 21.7348 19.5 22 19.5C22.81 19.4992 23.6098 19.3196 24.3422 18.9739C25.0747 18.6282 25.7218 18.125 26.2373 17.5002C26.7527 16.8755 27.1239 16.1445 27.3241 15.3597C27.5243 14.5749 27.5488 13.7555 27.3956 12.9602C27.2425 12.1648 26.9156 11.4131 26.4383 10.7588C25.9609 10.1044 25.345 9.56352 24.6344 9.1748C23.9238 8.78608 23.1361 8.5591 22.3276 8.51009C21.5192 8.46107 20.7098 8.59123 19.9575 8.89126C19.8348 8.94428 19.7028 8.97219 19.5691 8.97332C19.4355 8.97445 19.303 8.94878 19.1795 8.89783C19.0559 8.84688 18.9438 8.77169 18.8498 8.67669C18.7559 8.5817 18.6819 8.46882 18.6322 8.34474C18.5826 8.22066 18.5583 8.08789 18.5609 7.95428C18.5634 7.82067 18.5927 7.68892 18.6471 7.56682C18.7014 7.44472 18.7796 7.33476 18.8772 7.24341C18.9747 7.15207 19.0896 7.0812 19.215 7.03501C20.9368 6.34832 22.852 6.32361 24.5909 6.96564C26.3299 7.60767 27.7695 8.87095 28.632 10.5118C29.4945 12.1526 29.7188 14.0547 29.2616 15.8512C28.8044 17.6476 27.6982 19.2111 26.1563 20.24C28.5806 21.1336 30.6511 22.787 32.0588 24.9538C32.2036 25.1759 32.2543 25.4464 32.1997 25.7059C32.1451 25.9654 31.9896 26.1926 31.7675 26.3375Z" fill="#BCC1CA"/>
</g>
<defs>
<clipPath id="clip0_257_216">
<rect width="32" height="32" fill="white" transform="translate(0.5 0.5)"/>
</clipPath>
</defs>
</svg>
