<svg width="36" height="42" viewBox="0 0 36 42" fill="none" xmlns="http://www.w3.org/2000/svg">
<path d="M27.6404 17.3714L11.3477 26.1112C9.2364 27.2448 6.7381 25.6182 6.7381 23.1066V14.3668V5.62696C6.7381 3.11542 9.2364 1.48881 11.3477 2.62238L27.6404 11.3622C29.9624 12.6096 29.9624 16.124 27.6404 17.3714Z" fill="white"/>
<path d="M12.0254 30.1337L20.9608 25.3382C22.1218 24.7145 23.4892 25.6079 23.4892 26.9859V31.7814V36.5769C23.4892 37.9549 22.1175 38.8483 20.9608 38.2246L12.0254 33.4291C10.7526 32.7464 10.7526 30.8164 12.0254 30.1337Z" fill="white"/>
<path d="M25.3314 22.6871L29.7346 20.3273C30.3065 20.0196 30.9816 20.4621 30.9816 21.1406V23.5004V25.8602C30.9816 26.5387 30.3065 26.977 29.7346 26.6735L25.3314 24.3137C24.7036 23.9766 24.7036 23.0284 25.3314 22.6913V22.6871Z" fill="white"/>
<path d="M11.3477 21.4889L27.6404 12.7491C27.9801 12.5679 28.2682 12.3277 28.509 12.0622C29.9065 13.6088 29.6227 16.3226 27.6404 17.3845L11.3477 26.1243C9.2364 27.2579 6.7381 25.6313 6.7381 23.1198V18.4844C6.7381 20.9959 9.2364 22.6225 11.3477 21.4889Z" fill="white"/>
<path d="M20.9608 38.2302L12.0254 33.4346C10.787 32.7731 10.7569 30.94 11.9179 30.2067C11.9523 30.2278 11.9867 30.2531 12.0254 30.2741L20.9608 35.0697C22.1218 35.6934 23.4892 34.8 23.4892 33.422V36.5825C23.4892 37.9605 22.1175 38.8539 20.9608 38.2302Z" fill="white"/>
</svg>
