<svg width="24" height="23" viewBox="0 0 24 23" fill="none" xmlns="http://www.w3.org/2000/svg">
<path d="M12 2.15625C10.152 2.15625 8.34547 2.70425 6.80889 3.73096C5.27232 4.75766 4.07471 6.21695 3.3675 7.9243C2.6603 9.63165 2.47526 11.5104 2.83579 13.3229C3.19632 15.1354 4.08623 16.8003 5.39298 18.107C6.69972 19.4138 8.36462 20.3037 10.1771 20.6642C11.9896 21.0247 13.8684 20.8397 15.5757 20.1325C17.283 19.4253 18.7423 18.2277 19.769 16.6911C20.7958 15.1545 21.3438 13.348 21.3438 11.5C21.3411 9.02269 20.3559 6.64759 18.6041 4.89586C16.8524 3.14413 14.4773 2.15887 12 2.15625ZM12 19.4063C10.4363 19.4063 8.9077 18.9426 7.60753 18.0738C6.30735 17.2051 5.29399 15.9703 4.69558 14.5256C4.09718 13.0809 3.94061 11.4912 4.24567 9.95757C4.55073 8.42391 5.30373 7.01515 6.40944 5.90944C7.51515 4.80373 8.92391 4.05073 10.4576 3.74567C11.9912 3.4406 13.5809 3.59717 15.0256 4.19558C16.4703 4.79398 17.7051 5.80735 18.5738 7.10752C19.4426 8.4077 19.9063 9.93629 19.9063 11.5C19.9039 13.5961 19.0701 15.6057 17.5879 17.0879C16.1057 18.5701 14.0961 19.4039 12 19.4063ZM13.4375 15.8125C13.4375 16.0031 13.3618 16.1859 13.227 16.3207C13.0922 16.4555 12.9094 16.5313 12.7188 16.5313C12.3375 16.5313 11.9719 16.3798 11.7023 16.1102C11.4327 15.8406 11.2813 15.475 11.2813 15.0938L11.2813 11.5C11.0906 11.5 10.9078 11.4243 10.773 11.2895C10.6382 11.1547 10.5625 10.9719 10.5625 10.7813C10.5625 10.5906 10.6382 10.4078 10.773 10.273C10.9078 10.1382 11.0906 10.0625 11.2813 10.0625C11.6625 10.0625 12.0281 10.214 12.2977 10.4835C12.5673 10.7531 12.7188 11.1188 12.7188 11.5L12.7188 15.0938C12.9094 15.0938 13.0922 15.1695 13.227 15.3043C13.3618 15.4391 13.4375 15.6219 13.4375 15.8125ZM10.5625 7.54688C10.5625 7.33364 10.6257 7.1252 10.7442 6.9479C10.8627 6.7706 11.031 6.63242 11.228 6.55082C11.4251 6.46922 11.6418 6.44787 11.851 6.48947C12.0601 6.53107 12.2522 6.63375 12.403 6.78453C12.5538 6.9353 12.6564 7.12741 12.698 7.33654C12.7396 7.54568 12.7183 7.76245 12.6367 7.95946C12.5551 8.15646 12.4169 8.32484 12.2396 8.4433C12.0623 8.56177 11.8539 8.625 11.6406 8.625C11.3547 8.625 11.0805 8.51141 10.8783 8.30922C10.6761 8.10704 10.5625 7.83281 10.5625 7.54688Z" fill="white"/>
</svg>
