<svg width="30" height="29" viewBox="0 0 30 29" fill="none" xmlns="http://www.w3.org/2000/svg">
<path d="M26.5162 24.7338L20.8442 19.063C22.4882 17.0893 23.3079 14.5578 23.133 11.9951C22.958 9.43235 21.8018 7.03575 19.9048 5.30381C18.0078 3.57187 15.5162 2.63794 12.9482 2.69631C10.3801 2.75467 7.93349 3.80083 6.11716 5.61716C4.30083 7.43349 3.25467 9.88014 3.19631 12.4482C3.13794 15.0162 4.07187 17.5078 5.80381 19.4048C7.53575 21.3018 9.93235 22.458 12.4951 22.633C15.0578 22.8079 17.5893 21.9882 19.563 20.3442L25.2338 26.0162C25.318 26.1004 25.418 26.1672 25.528 26.2127C25.638 26.2583 25.7559 26.2818 25.875 26.2818C25.9941 26.2818 26.112 26.2583 26.222 26.2127C26.332 26.1672 26.432 26.1004 26.5162 26.0162C26.6004 25.932 26.6672 25.832 26.7127 25.722C26.7583 25.612 26.7818 25.4941 26.7818 25.375C26.7818 25.2559 26.7583 25.138 26.7127 25.028C26.6672 24.918 26.6004 24.818 26.5162 24.7338ZM5.03126 12.6875C5.03126 11.0744 5.50962 9.49743 6.40584 8.15614C7.30206 6.81486 8.57589 5.76945 10.0663 5.15212C11.5566 4.53479 13.1966 4.37327 14.7787 4.68798C16.3609 5.0027 17.8142 5.7795 18.9549 6.92017C20.0955 8.06085 20.8723 9.51415 21.187 11.0963C21.5018 12.6785 21.3402 14.3184 20.7229 15.8088C20.1056 17.2991 19.0602 18.573 17.7189 19.4692C16.3776 20.3654 14.8007 20.8438 13.1875 20.8438C11.0251 20.8414 8.9519 19.9813 7.42282 18.4522C5.89375 16.9231 5.03366 14.85 5.03126 12.6875Z" fill="#9095A0"/>
</svg>
