<svg width="30" height="30" viewBox="0 0 30 30" fill="none" xmlns="http://www.w3.org/2000/svg">
<path d="M26.5162 25.2338L20.8442 19.563C22.4882 17.5893 23.3079 15.0578 23.133 12.4951C22.958 9.93235 21.8018 7.53575 19.9048 5.80381C18.0078 4.07187 15.5162 3.13794 12.9482 3.19631C10.3801 3.25467 7.93349 4.30083 6.11716 6.11716C4.30083 7.93349 3.25467 10.3801 3.19631 12.9482C3.13794 15.5162 4.07187 18.0078 5.80381 19.9048C7.53575 21.8018 9.93235 22.958 12.4951 23.133C15.0578 23.3079 17.5893 22.4882 19.563 20.8442L25.2338 26.5162C25.318 26.6004 25.418 26.6672 25.528 26.7127C25.638 26.7583 25.7559 26.7818 25.875 26.7818C25.9941 26.7818 26.112 26.7583 26.222 26.7127C26.332 26.6672 26.432 26.6004 26.5162 26.5162C26.6004 26.432 26.6672 26.332 26.7127 26.222C26.7583 26.112 26.7818 25.9941 26.7818 25.875C26.7818 25.7559 26.7583 25.638 26.7127 25.528C26.6672 25.418 26.6004 25.318 26.5162 25.2338ZM5.03126 13.1875C5.03126 11.5744 5.50962 9.99743 6.40584 8.65614C7.30206 7.31486 8.57589 6.26945 10.0663 5.65212C11.5566 5.03479 13.1966 4.87327 14.7787 5.18798C16.3609 5.5027 17.8142 6.2795 18.9549 7.42017C20.0955 8.56085 20.8723 10.0142 21.187 11.5963C21.5018 13.1785 21.3402 14.8184 20.7229 16.3088C20.1056 17.7991 19.0602 19.073 17.7189 19.9692C16.3776 20.8654 14.8007 21.3438 13.1875 21.3438C11.0251 21.3414 8.9519 20.4813 7.42282 18.9522C5.89375 17.4231 5.03366 15.35 5.03126 13.1875Z" fill="#9095A0"/>
</svg>
