<svg width="25" height="24" viewBox="0 0 25 24" fill="none" xmlns="http://www.w3.org/2000/svg">
<path d="M22.0306 20.4693L17.3366 15.7762C18.6971 14.1428 19.3755 12.0478 19.2307 9.92691C19.0859 7.80604 18.129 5.82265 16.5591 4.38932C14.9892 2.95599 12.9272 2.18308 10.8019 2.23138C8.67666 2.27968 6.65184 3.14547 5.14867 4.64864C3.6455 6.15181 2.77971 8.17663 2.73141 10.3019C2.68311 12.4271 3.45602 14.4892 4.88935 16.0591C6.32268 17.629 8.30607 18.5859 10.4269 18.7307C12.5478 18.8755 14.6429 18.1971 16.2763 16.8365L20.9694 21.5306C21.0391 21.6003 21.1218 21.6556 21.2128 21.6933C21.3039 21.731 21.4015 21.7504 21.5 21.7504C21.5985 21.7504 21.6961 21.731 21.7872 21.6933C21.8782 21.6556 21.9609 21.6003 22.0306 21.5306C22.1003 21.4609 22.1556 21.3782 22.1933 21.2871C22.231 21.1961 22.2504 21.0985 22.2504 21C22.2504 20.9014 22.231 20.8038 22.1933 20.7128C22.1556 20.6218 22.1003 20.539 22.0306 20.4693ZM4.25 10.5C4.25 9.16495 4.64588 7.8599 5.38758 6.74987C6.12928 5.63984 7.18349 4.77467 8.41689 4.26378C9.65029 3.75289 11.0075 3.61922 12.3169 3.87967C13.6262 4.14012 14.829 4.78299 15.773 5.727C16.717 6.671 17.3599 7.87374 17.6203 9.18311C17.8808 10.4925 17.7471 11.8497 17.2362 13.0831C16.7253 14.3165 15.8601 15.3707 14.7501 16.1124C13.6401 16.8541 12.335 17.25 11 17.25C9.2104 17.248 7.49466 16.5362 6.22922 15.2708C4.96378 14.0053 4.25199 12.2896 4.25 10.5Z" fill="#9095A0"/>
</svg>
