<svg width="36" height="36" viewBox="0 0 36 36" fill="none" xmlns="http://www.w3.org/2000/svg">
<path d="M26.1 25.2C27.5912 25.2 28.8 23.9912 28.8 22.5C28.8 21.0088 27.5912 19.8 26.1 19.8C24.6088 19.8 23.4 21.0088 23.4 22.5C23.4 23.9912 24.6088 25.2 26.1 25.2Z" stroke="#BCC1CA" stroke-width="2.16" stroke-miterlimit="10" stroke-linecap="square"/>
<path d="M9.9 25.2C11.3912 25.2 12.6 23.9912 12.6 22.5C12.6 21.0088 11.3912 19.8 9.9 19.8C8.40883 19.8 7.2 21.0088 7.2 22.5C7.2 23.9912 8.40883 25.2 9.9 25.2Z" stroke="#BCC1CA" stroke-width="2.16" stroke-miterlimit="10" stroke-linecap="square"/>
<path d="M23.4 16.2V15.3153C23.4 14.6763 23.0652 14.0886 22.5153 13.7628C21.6396 13.2453 20.1222 12.6 18 12.6C15.8508 12.6 14.3424 13.2417 13.4766 13.7592C12.9312 14.085 12.6 14.6709 12.6 15.3063V16.2L23.4 16.2Z" stroke="#BCC1CA" stroke-width="2.16" stroke-miterlimit="10" stroke-linecap="square"/>
<path d="M15.3 31.5V30.6153C15.3 29.9763 14.9652 29.3886 14.4153 29.0628C13.5396 28.5453 12.0222 27.9 9.9 27.9C7.7508 27.9 6.2424 28.5417 5.3766 29.0592C4.8312 29.385 4.5 29.9709 4.5 30.6063V31.5L15.3 31.5Z" stroke="#BCC1CA" stroke-width="2.16" stroke-miterlimit="10" stroke-linecap="square"/>
<path d="M31.5 31.5V30.6153C31.5 29.9763 31.1652 29.3886 30.6153 29.0628C29.7396 28.5453 28.2222 27.9 26.1 27.9C23.9508 27.9 22.4424 28.5417 21.5766 29.0592C21.0312 29.385 20.7 29.9709 20.7 30.6063V31.5L31.5 31.5Z" stroke="#BCC1CA" stroke-width="2.16" stroke-miterlimit="10" stroke-linecap="square"/>
<path d="M18 9.9C19.4912 9.9 20.7 8.69117 20.7 7.2C20.7 5.70883 19.4912 4.5 18 4.5C16.5088 4.5 15.3 5.70883 15.3 7.2C15.3 8.69117 16.5088 9.9 18 9.9Z" stroke="#BCC1CA" stroke-width="2.16" stroke-miterlimit="10" stroke-linecap="square"/>
</svg>
