<svg width="22" height="21" viewBox="0 0 22 21" fill="none" xmlns="http://www.w3.org/2000/svg">
<path d="M11 4.0425C13.1 4.0425 13.352 4.05037 14.182 4.08817C14.6815 4.09407 15.1763 4.18588 15.6447 4.3596C15.9866 4.48583 16.2959 4.68711 16.5498 4.94865C16.8113 5.20253 17.0126 5.51181 17.1388 5.85375C17.3125 6.32212 17.4044 6.81689 17.4102 7.3164C17.448 8.148 17.4575 8.4 17.4575 10.5C17.4575 12.6 17.4496 12.852 17.4118 13.682C17.4059 14.1815 17.3141 14.6763 17.1404 15.1447C17.0093 15.4841 16.8087 15.7924 16.5513 16.0498C16.294 16.3071 15.9857 16.5077 15.6462 16.6388C15.1779 16.8125 14.6831 16.9044 14.1836 16.9102C13.3536 16.948 13.1042 16.9559 11.0016 16.9559C8.89895 16.9559 8.64957 16.948 7.81955 16.9102C7.32004 16.9044 6.82527 16.8125 6.3569 16.6388C6.01496 16.5126 5.70568 16.3113 5.4518 16.0498C5.19026 15.7959 4.98898 15.4866 4.86275 15.1447C4.68903 14.6763 4.59722 14.1815 4.59132 13.682C4.55195 12.852 4.5425 12.6026 4.5425 10.5C4.5425 8.39737 4.55037 8.148 4.58817 7.31797C4.59407 6.81846 4.68588 6.32369 4.8596 5.85532C4.98628 5.51324 5.18812 5.20394 5.45022 4.95022C5.7041 4.68869 6.01339 4.4874 6.35532 4.36118C6.82369 4.18746 7.31846 4.09564 7.81797 4.08975C8.648 4.05195 8.9 4.0425 11 4.0425ZM11 2.625C8.86115 2.625 8.59287 2.63393 7.7534 2.67225C7.09989 2.6861 6.45343 2.81035 5.84135 3.03975C5.31623 3.23738 4.84041 3.54695 4.44695 3.94695C4.04638 4.34026 3.73627 4.81608 3.53817 5.34135C3.30877 5.95343 3.18452 6.59989 3.17068 7.2534C3.13393 8.09287 3.125 8.36115 3.125 10.5C3.125 12.6388 3.13393 12.9071 3.17225 13.7466C3.1861 14.4001 3.31035 15.0466 3.53975 15.6586C3.73784 16.1839 4.04796 16.6597 4.44852 17.053C4.84183 17.4536 5.31766 17.7637 5.84292 17.9618C6.455 18.1912 7.10147 18.3155 7.75497 18.3293C8.59497 18.3676 8.86272 18.3766 11.0016 18.3766C13.1404 18.3766 13.4087 18.3676 14.2482 18.3293C14.9017 18.3155 15.5481 18.1912 16.1602 17.9618C16.6832 17.7591 17.1581 17.4496 17.5546 17.0531C17.9512 16.6565 18.2607 16.1816 18.4634 15.6586C18.6928 15.0466 18.8171 14.4001 18.8309 13.7466C18.8692 12.9066 18.8781 12.6388 18.8781 10.5C18.8781 8.36115 18.8692 8.09287 18.8309 7.2534C18.8171 6.59989 18.6928 5.95343 18.4634 5.34135C18.2653 4.81608 17.9552 4.34026 17.5546 3.94695C17.1613 3.54638 16.6855 3.23627 16.1602 3.03817C15.5481 2.80877 14.9017 2.68452 14.2482 2.67068C13.4071 2.63393 13.1388 2.625 11 2.625Z" fill="white"/>
<path d="M11 6.4575C10.2005 6.4575 9.41888 6.69459 8.7541 7.13879C8.08931 7.58298 7.57118 8.21434 7.26521 8.95301C6.95924 9.69168 6.87919 10.5045 7.03517 11.2887C7.19115 12.0728 7.57616 12.7931 8.14151 13.3585C8.70687 13.9238 9.42717 14.3088 10.2113 14.4648C10.9955 14.6208 11.8083 14.5408 12.547 14.2348C13.2857 13.9288 13.917 13.4107 14.3612 12.7459C14.8054 12.0811 15.0425 11.2995 15.0425 10.5C15.0425 9.42787 14.6166 8.39964 13.8585 7.64152C13.1004 6.88341 12.0721 6.4575 11 6.4575ZM11 13.125C10.4808 13.125 9.9733 12.9711 9.54162 12.6826C9.10994 12.3942 8.77349 11.9842 8.57481 11.5045C8.37613 11.0249 8.32414 10.4971 8.42543 9.98789C8.52672 9.47869 8.77672 9.01096 9.14384 8.64385C9.51095 8.27674 9.97868 8.02673 10.4879 7.92544C10.9971 7.82416 11.5249 7.87614 12.0045 8.07482C12.4842 8.2735 12.8942 8.60995 13.1826 9.04163C13.471 9.47331 13.625 9.98083 13.625 10.5C13.625 11.1962 13.3484 11.8639 12.8561 12.3562C12.3639 12.8484 11.6962 13.125 11 13.125Z" fill="white"/>
<path d="M15.2037 7.24133C15.7256 7.24133 16.1487 6.81824 16.1487 6.29633C16.1487 5.77442 15.7256 5.35133 15.2037 5.35133C14.6818 5.35133 14.2587 5.77442 14.2587 6.29633C14.2587 6.81824 14.6818 7.24133 15.2037 7.24133Z" fill="white"/>
</svg>
