<svg width="21" height="21" viewBox="0 0 21 21" fill="none" xmlns="http://www.w3.org/2000/svg">
<path d="M9.60525 1.66692C10.1369 1.11095 11.025 1.11095 11.5566 1.66692L13.8717 4.08782C14.0496 4.27389 14.277 4.40522 14.5272 4.46627L17.7813 5.26069C18.5286 5.44314 18.9726 6.21224 18.7569 6.95064L17.8179 10.166C17.7457 10.4131 17.7457 10.6757 17.8179 10.9229L18.7569 14.1382C18.9726 14.8766 18.5286 15.6457 17.7813 15.8282L14.5272 16.6226C14.277 16.6837 14.0496 16.8149 13.8717 17.0011L11.5566 19.4219C11.025 19.978 10.1369 19.978 9.60525 19.4219L7.29022 17.0011C7.11228 16.8149 6.88483 16.6837 6.63471 16.6226L3.38064 15.8282C2.63332 15.6457 2.18929 14.8766 2.40495 14.1382L3.34399 10.9229C3.41617 10.6757 3.41617 10.4131 3.34399 10.166L2.40495 6.95064C2.18929 6.21224 2.63332 5.44314 3.38064 5.26069L6.63471 4.46627C6.88483 4.40522 7.11228 4.27389 7.29022 4.08782L9.60525 1.66692Z" fill="#A07CE9"/>
<path d="M7.01843 9.93969C8.89447 11.2726 9.36019 14.0994 9.36019 14.0994C9.36019 14.0994 10.5268 9.55314 15.083 7.94946" stroke="white" stroke-width="0.75" stroke-linecap="round" stroke-linejoin="round"/>
</svg>
