<svg width="21" height="21" viewBox="0 0 21 21" fill="none" xmlns="http://www.w3.org/2000/svg">
<path d="M9.60526 1.66692C10.1369 1.11095 11.025 1.11095 11.5566 1.66692L13.8717 4.08782C14.0496 4.27389 14.2771 4.40522 14.5272 4.46627L17.7813 5.26069C18.5286 5.44314 18.9726 6.21224 18.7569 6.95064L17.8179 10.166C17.7457 10.4131 17.7457 10.6757 17.8179 10.9229L18.7569 14.1382C18.9726 14.8766 18.5286 15.6457 17.7813 15.8282L14.5272 16.6226C14.2771 16.6837 14.0496 16.8149 13.8717 17.0011L11.5566 19.4219C11.025 19.978 10.1369 19.978 9.60526 19.4219L7.29024 17.0011C7.11229 16.8149 6.88485 16.6837 6.63472 16.6226L3.38065 15.8282C2.63334 15.6457 2.18931 14.8766 2.40496 14.1382L3.34401 10.9229C3.41619 10.6757 3.41619 10.4131 3.34401 10.166L2.40496 6.95064C2.18931 6.21224 2.63334 5.44314 3.38065 5.26069L6.63472 4.46627C6.88485 4.40522 7.11229 4.27389 7.29024 4.08782L9.60526 1.66692Z" fill="#1CE5FF"/>
<path d="M7.01845 9.93969C8.89448 11.2726 9.3602 14.0994 9.3602 14.0994C9.3602 14.0994 10.5269 9.55314 15.083 7.94946" stroke="black" stroke-width="0.75" stroke-linecap="round" stroke-linejoin="round"/>
</svg>
