<svg width="19" height="19" viewBox="0 0 19 19" fill="none" xmlns="http://www.w3.org/2000/svg">
<path fill-rule="evenodd" clip-rule="evenodd" d="M17.25 10V17.5C17.25 18.3284 16.5784 19 15.75 19H1.5C0.671573 19 0 18.3284 0 17.5V3.25C0 2.42157 0.671573 1.75 1.5 1.75H9C9.41421 1.75 9.75 2.08579 9.75 2.5C9.75 2.91421 9.41421 3.25 9 3.25H1.5V17.5H15.75V10C15.75 9.58579 16.0858 9.25 16.5 9.25C16.9142 9.25 17.25 9.58579 17.25 10ZM18.75 3.625C18.75 5.48896 17.239 7 15.375 7C13.511 7 12 5.48896 12 3.625C12 1.76104 13.511 0.25 15.375 0.25C17.239 0.25 18.75 1.76104 18.75 3.625ZM17.25 3.625C17.25 2.58947 16.4105 1.75 15.375 1.75C14.3395 1.75 13.5 2.58947 13.5 3.625C13.5 4.66053 14.3395 5.5 15.375 5.5C16.4105 5.5 17.25 4.66053 17.25 3.625Z" fill="white"/>
</svg>
