<svg width="22" height="19" viewBox="0 0 22 19" fill="none" xmlns="http://www.w3.org/2000/svg">
<path fill-rule="evenodd" clip-rule="evenodd" d="M15.6875 0.5C13.7516 0.5 12.0566 1.3325 11 2.73969C9.94344 1.3325 8.24844 0.5 6.3125 0.5C3.10384 0.503617 0.503617 3.10384 0.5 6.3125C0.5 12.875 10.2303 18.1869 10.6447 18.4062C10.8665 18.5256 11.1335 18.5256 11.3553 18.4062C11.7697 18.1869 21.5 12.875 21.5 6.3125C21.4964 3.10384 18.8962 0.503617 15.6875 0.5ZM11 16.8875C9.28813 15.89 2 11.3459 2 6.3125C2.0031 3.93206 3.93206 2.0031 6.3125 2C8.13594 2 9.66687 2.97125 10.3062 4.53125C10.4218 4.81259 10.6959 4.99627 11 4.99627C11.3041 4.99627 11.5782 4.81259 11.6938 4.53125C12.3331 2.96844 13.8641 2 15.6875 2C18.0679 2.0031 19.9969 3.93206 20 6.3125C20 11.3384 12.71 15.8891 11 16.8875Z" fill="white"/>
</svg>
