<svg width="26" height="26" viewBox="0 0 26 26" fill="none" xmlns="http://www.w3.org/2000/svg">
<path d="M1.08331 21.6667V17.3333C1.08331 16.7194 1.29547 16.2049 1.71977 15.7896C2.14408 15.3743 2.65415 15.1667 3.24998 15.1667H6.7979C7.15901 15.1667 7.50206 15.2569 7.82706 15.4375C8.15206 15.618 8.41387 15.8618 8.61248 16.1687C9.13609 16.8729 9.78158 17.4236 10.5489 17.8208C11.3163 18.218 12.1333 18.4167 13 18.4167C13.8847 18.4167 14.7107 18.218 15.4781 17.8208C16.2455 17.4236 16.8819 16.8729 17.3875 16.1687C17.6222 15.8618 17.8975 15.618 18.2135 15.4375C18.5295 15.2569 18.859 15.1667 19.2021 15.1667H22.75C23.3639 15.1667 23.8785 15.3743 24.2937 15.7896C24.709 16.2049 24.9166 16.7194 24.9166 17.3333V21.6667H17.3333V19.2021C16.7014 19.6535 16.0198 19.9965 15.2885 20.2312C14.5573 20.466 13.7944 20.5833 13 20.5833C12.2236 20.5833 11.4653 20.4615 10.725 20.2177C9.9847 19.974 9.29859 19.6264 8.66665 19.175V21.6667H1.08331ZM13 17.3333C12.3139 17.3333 11.6639 17.1753 11.05 16.8594C10.4361 16.5434 9.92151 16.1055 9.50623 15.5458C9.19929 15.0944 8.8156 14.7378 8.35519 14.476C7.89477 14.2142 7.39373 14.0833 6.85206 14.0833C7.24929 13.4153 8.08887 12.8871 9.37081 12.499C10.6528 12.1108 11.8625 11.9167 13 11.9167C14.1375 11.9167 15.3472 12.1108 16.6291 12.499C17.9111 12.8871 18.7507 13.4153 19.1479 14.0833C18.6243 14.0833 18.1278 14.2142 17.6583 14.476C17.1889 14.7378 16.8007 15.0944 16.4937 15.5458C16.0965 16.1236 15.591 16.566 14.9771 16.8729C14.3632 17.1799 13.7041 17.3333 13 17.3333ZM4.33331 14.0833C3.43054 14.0833 2.66317 13.7674 2.03123 13.1354C1.39929 12.5035 1.08331 11.7361 1.08331 10.8333C1.08331 9.91249 1.39929 9.14062 2.03123 8.5177C2.66317 7.89479 3.43054 7.58333 4.33331 7.58333C5.25415 7.58333 6.02602 7.89479 6.64894 8.5177C7.27185 9.14062 7.58331 9.91249 7.58331 10.8333C7.58331 11.7361 7.27185 12.5035 6.64894 13.1354C6.02602 13.7674 5.25415 14.0833 4.33331 14.0833ZM21.6666 14.0833C20.7639 14.0833 19.9965 13.7674 19.3646 13.1354C18.7326 12.5035 18.4166 11.7361 18.4166 10.8333C18.4166 9.91249 18.7326 9.14062 19.3646 8.5177C19.9965 7.89479 20.7639 7.58333 21.6666 7.58333C22.5875 7.58333 23.3594 7.89479 23.9823 8.5177C24.6052 9.14062 24.9166 9.91249 24.9166 10.8333C24.9166 11.7361 24.6052 12.5035 23.9823 13.1354C23.3594 13.7674 22.5875 14.0833 21.6666 14.0833ZM13 10.8333C12.0972 10.8333 11.3298 10.5174 10.6979 9.88541C10.066 9.25347 9.74998 8.48611 9.74998 7.58333C9.74998 6.66249 10.066 5.89062 10.6979 5.2677C11.3298 4.64479 12.0972 4.33333 13 4.33333C13.9208 4.33333 14.6927 4.64479 15.3156 5.2677C15.9385 5.89062 16.25 6.66249 16.25 7.58333C16.25 8.48611 15.9385 9.25347 15.3156 9.88541C14.6927 10.5174 13.9208 10.8333 13 10.8333Z" fill="#E8EAED"/>
</svg>
