<svg width="30" height="29" viewBox="0 0 30 29" fill="none" xmlns="http://www.w3.org/2000/svg">
<path d="M19.5312 12.6875C19.5312 13.9422 19.1592 15.1687 18.4621 16.2119C17.765 17.2551 16.7743 18.0682 15.6151 18.5484C14.456 19.0285 13.1804 19.1541 11.9499 18.9094C10.7193 18.6646 9.58896 18.0604 8.70177 17.1732C7.81458 16.286 7.21039 15.1557 6.96562 13.9251C6.72084 12.6945 6.84647 11.419 7.32661 10.2599C7.80676 9.10068 8.61985 8.10992 9.66308 7.41286C10.7063 6.7158 11.9328 6.34375 13.1875 6.34375C14.8699 6.34375 16.4835 7.01211 17.6732 8.20179C18.8629 9.39148 19.5312 11.005 19.5312 12.6875ZM26.5161 26.0162C26.432 26.1004 26.332 26.1673 26.222 26.2129C26.112 26.2585 25.9941 26.282 25.875 26.282C25.7559 26.282 25.638 26.2585 25.5279 26.2129C25.4179 26.1673 25.318 26.1004 25.2338 26.0162L19.5629 20.3442C17.5908 21.9848 15.0622 22.8021 12.5029 22.6259C9.94359 22.4497 7.55073 21.2937 5.82203 19.3983C4.09332 17.5029 3.16186 15.0141 3.22138 12.4494C3.28089 9.88476 4.32682 7.44178 6.14159 5.62861C7.95636 3.81545 10.4003 2.77168 12.965 2.71443C15.5297 2.65718 18.0177 3.59085 19.9116 5.32122C21.8055 7.0516 22.9594 9.44548 23.1333 12.0049C23.3072 14.5644 22.4877 17.0923 20.8453 19.063L26.5161 24.7338C26.6004 24.818 26.6673 24.9179 26.7129 25.028C26.7585 25.138 26.7819 25.2559 26.7819 25.375C26.7819 25.4941 26.7585 25.612 26.7129 25.722C26.6673 25.8321 26.6004 25.932 26.5161 26.0162ZM13.1875 20.8438C14.8006 20.8438 16.3776 20.3654 17.7188 19.4692C19.0601 18.573 20.1055 17.2991 20.7229 15.8088C21.3402 14.3184 21.5017 12.6785 21.187 11.0963C20.8723 9.51414 20.0955 8.06083 18.9548 6.92016C17.8141 5.77949 16.3608 5.00268 14.7787 4.68797C13.1965 4.37326 11.5566 4.53478 10.0662 5.15211C8.57585 5.76943 7.30202 6.81484 6.4058 8.15613C5.50958 9.49742 5.03122 11.0743 5.03122 12.6875C5.03362 14.8499 5.89371 16.9231 7.42278 18.4522C8.95186 19.9813 11.025 20.8414 13.1875 20.8438Z" fill="white"/>
</svg>
