<svg width="20" height="22" viewBox="0 0 20 22" fill="none" xmlns="http://www.w3.org/2000/svg">
<path fill-rule="evenodd" clip-rule="evenodd" d="M19.75 11C19.75 9.75736 18.7426 8.75 17.5 8.75H10.75V7.90625C12.0739 7.56236 12.9987 6.36788 13 5C13 2.375 10.5212 0.695937 10.4163 0.625625C10.1642 0.457475 9.83578 0.457475 9.58375 0.625625C9.47875 0.695937 7 2.375 7 5C7.00129 6.36788 7.92605 7.56236 9.25 7.90625V8.75H2.5C1.25736 8.75 0.25 9.75736 0.25 11V13.1872C0.250769 14.0054 0.513613 14.8018 1 15.4597V19.25C1 20.4926 2.00736 21.5 3.25 21.5H16.75C17.9926 21.5 19 20.4926 19 19.25V15.4597C19.4864 14.8018 19.7492 14.0054 19.75 13.1872V11ZM8.5 5C8.5 3.72781 9.4375 2.70688 10 2.20719C10.5625 2.70688 11.5 3.72781 11.5 5C11.5 5.82843 10.8284 6.5 10 6.5C9.17157 6.5 8.5 5.82843 8.5 5ZM1.75 11C1.75 10.5858 2.08579 10.25 2.5 10.25H17.5C17.9142 10.25 18.25 10.5858 18.25 11V13.1872C18.25 14.4294 17.2694 15.4663 16.0637 15.4991C15.4562 15.5163 14.8675 15.287 14.4317 14.8633C13.9959 14.4397 13.75 13.8578 13.75 13.25C13.75 12.8358 13.4142 12.5 13 12.5C12.5858 12.5 12.25 12.8358 12.25 13.25C12.25 14.4926 11.2426 15.5 10 15.5C8.75736 15.5 7.75 14.4926 7.75 13.25C7.75 12.8358 7.41421 12.5 7 12.5C6.58579 12.5 6.25 12.8358 6.25 13.25C6.25024 13.8579 6.00446 14.4401 5.56861 14.864C5.13277 15.2878 4.54395 15.5172 3.93625 15.5C2.73063 15.4663 1.75 14.4294 1.75 13.1872V11ZM16.75 20H3.25C2.83579 20 2.5 19.6642 2.5 19.25V16.6775C2.93902 16.8764 3.41322 16.9861 3.895 17C4.90782 17.0315 5.88968 16.6486 6.61375 15.9397C6.75366 15.8033 6.88279 15.6563 7 15.5C7.7082 16.4443 8.81966 17 10 17C11.1803 17 12.2918 16.4443 13 15.5C13.1176 15.6557 13.247 15.8021 13.3872 15.9378C14.0849 16.6212 15.0234 17.0027 16 17C16.0356 17 16.0712 17 16.1069 17C16.588 16.9858 17.0616 16.8762 17.5 16.6775V19.25C17.5 19.6642 17.1642 20 16.75 20Z" fill="white"/>
</svg>
