<svg width="21" height="21" viewBox="0 0 21 21" fill="none" xmlns="http://www.w3.org/2000/svg">
<path d="M10.5 4.0425C12.6 4.0425 12.852 4.05037 13.682 4.08817C14.1815 4.09407 14.6763 4.18588 15.1447 4.3596C15.4866 4.48583 15.7959 4.68711 16.0498 4.94865C16.3113 5.20253 16.5126 5.51181 16.6388 5.85375C16.8125 6.32212 16.9044 6.81689 16.9102 7.3164C16.948 8.148 16.9575 8.4 16.9575 10.5C16.9575 12.6 16.9496 12.852 16.9118 13.682C16.9059 14.1815 16.8141 14.6763 16.6404 15.1447C16.5093 15.4841 16.3087 15.7924 16.0513 16.0498C15.794 16.3071 15.4857 16.5077 15.1462 16.6388C14.6779 16.8125 14.1831 16.9044 13.6836 16.9102C12.8536 16.948 12.6042 16.9559 10.5016 16.9559C8.39895 16.9559 8.14957 16.948 7.31955 16.9102C6.82004 16.9044 6.32527 16.8125 5.8569 16.6388C5.51496 16.5126 5.20568 16.3113 4.9518 16.0498C4.69026 15.7959 4.48898 15.4866 4.36275 15.1447C4.18903 14.6763 4.09722 14.1815 4.09132 13.682C4.05195 12.852 4.0425 12.6026 4.0425 10.5C4.0425 8.39737 4.05037 8.148 4.08817 7.31797C4.09407 6.81846 4.18588 6.32369 4.3596 5.85532C4.48628 5.51324 4.68812 5.20394 4.95022 4.95022C5.2041 4.68869 5.51339 4.4874 5.85532 4.36118C6.32369 4.18746 6.81846 4.09564 7.31797 4.08975C8.148 4.05195 8.4 4.0425 10.5 4.0425ZM10.5 2.625C8.36115 2.625 8.09287 2.63393 7.2534 2.67225C6.59989 2.6861 5.95343 2.81035 5.34135 3.03975C4.81623 3.23738 4.34041 3.54695 3.94695 3.94695C3.54638 4.34026 3.23627 4.81608 3.03817 5.34135C2.80877 5.95343 2.68452 6.59989 2.67068 7.2534C2.63393 8.09287 2.625 8.36115 2.625 10.5C2.625 12.6388 2.63393 12.9071 2.67225 13.7466C2.6861 14.4001 2.81035 15.0466 3.03975 15.6586C3.23784 16.1839 3.54796 16.6597 3.94852 17.053C4.34183 17.4536 4.81766 17.7637 5.34292 17.9618C5.955 18.1912 6.60147 18.3155 7.25497 18.3293C8.09497 18.3676 8.36272 18.3766 10.5016 18.3766C12.6404 18.3766 12.9087 18.3676 13.7482 18.3293C14.4017 18.3155 15.0481 18.1912 15.6602 17.9618C16.1832 17.7591 16.6581 17.4496 17.0546 17.0531C17.4512 16.6565 17.7607 16.1816 17.9634 15.6586C18.1928 15.0466 18.3171 14.4001 18.3309 13.7466C18.3692 12.9066 18.3781 12.6388 18.3781 10.5C18.3781 8.36115 18.3692 8.09287 18.3309 7.2534C18.3171 6.59989 18.1928 5.95343 17.9634 5.34135C17.7653 4.81608 17.4552 4.34026 17.0546 3.94695C16.6613 3.54638 16.1855 3.23627 15.6602 3.03817C15.0481 2.80877 14.4017 2.68452 13.7482 2.67068C12.9071 2.63393 12.6388 2.625 10.5 2.625Z" fill="white"/>
<path d="M10.5 6.4575C9.70046 6.4575 8.91888 6.69459 8.2541 7.13878C7.58931 7.58298 7.07118 8.21433 6.76521 8.953C6.45924 9.69167 6.37919 10.5045 6.53517 11.2887C6.69115 12.0728 7.07616 12.7931 7.64151 13.3585C8.20687 13.9238 8.92717 14.3088 9.71134 14.4648C10.4955 14.6208 11.3083 14.5408 12.047 14.2348C12.7857 13.9288 13.417 13.4107 13.8612 12.7459C14.3054 12.0811 14.5425 11.2995 14.5425 10.5C14.5425 9.42786 14.1166 8.39964 13.3585 7.64152C12.6004 6.88341 11.5721 6.4575 10.5 6.4575ZM10.5 13.125C9.98081 13.125 9.4733 12.971 9.04162 12.6826C8.60994 12.3942 8.27349 11.9842 8.07481 11.5045C7.87613 11.0249 7.82414 10.4971 7.92543 9.98789C8.02672 9.47869 8.27672 9.01096 8.64384 8.64384C9.01095 8.27673 9.47868 8.02672 9.98788 7.92544C10.4971 7.82415 11.0249 7.87614 11.5045 8.07482C11.9842 8.2735 12.3942 8.60995 12.6826 9.04163C12.971 9.47331 13.125 9.98082 13.125 10.5C13.125 11.1962 12.8484 11.8639 12.3561 12.3562C11.8639 12.8484 11.1962 13.125 10.5 13.125Z" fill="white"/>
<path d="M14.7037 7.24133C15.2256 7.24133 15.6487 6.81824 15.6487 6.29633C15.6487 5.77442 15.2256 5.35133 14.7037 5.35133C14.1818 5.35133 13.7587 5.77442 13.7587 6.29633C13.7587 6.81824 14.1818 7.24133 14.7037 7.24133Z" fill="white"/>
</svg>
