<svg width="28" height="28" viewBox="0 0 28 28" fill="none" xmlns="http://www.w3.org/2000/svg">
<rect width="28" height="28" rx="14" fill="#DE3B40"/>
<path d="M17.4285 12.8572C18.6909 12.8572 19.7143 11.8338 19.7143 10.5715C19.7143 9.30912 18.6909 8.28577 17.4285 8.28577C16.1662 8.28577 15.1428 9.30912 15.1428 10.5715C15.1428 11.8338 16.1662 12.8572 17.4285 12.8572Z" stroke="white" stroke-width="1.37143" stroke-miterlimit="10" stroke-linecap="square"/>
<path d="M10.5714 12.8572C11.8337 12.8572 12.8571 11.8338 12.8571 10.5715C12.8571 9.30912 11.8337 8.28577 10.5714 8.28577C9.30899 8.28577 8.28564 9.30912 8.28564 10.5715C8.28564 11.8338 9.30899 12.8572 10.5714 12.8572Z" stroke="white" stroke-width="1.37143" stroke-miterlimit="10" stroke-linecap="square"/>
<path d="M17.4285 19.7143C18.6909 19.7143 19.7143 18.6909 19.7143 17.4285C19.7143 16.1662 18.6909 15.1428 17.4285 15.1428C16.1662 15.1428 15.1428 16.1662 15.1428 17.4285C15.1428 18.6909 16.1662 19.7143 17.4285 19.7143Z" stroke="white" stroke-width="1.37143" stroke-miterlimit="10" stroke-linecap="square"/>
<path d="M10.5714 19.7143C11.8337 19.7143 12.8571 18.6909 12.8571 17.4285C12.8571 16.1662 11.8337 15.1428 10.5714 15.1428C9.30899 15.1428 8.28564 16.1662 8.28564 17.4285C8.28564 18.6909 9.30899 19.7143 10.5714 19.7143Z" stroke="white" stroke-width="1.37143" stroke-miterlimit="10" stroke-linecap="square"/>
</svg>
